<svg width="56" height="56" viewBox="0 0 56 56" fill="none" xmlns="http://www.w3.org/2000/svg">
<rect width="56" height="56" rx="28" fill="#B140FF"/>
<path fill-rule="evenodd" clip-rule="evenodd" d="M29.3571 22.4506C29.3068 21.9642 29.2543 21.4596 29.1254 20.9561C28.7741 19.7515 27.801 19 26.7576 19C26.1757 18.9979 25.4395 19.3564 25.0222 19.7193L21.5629 22.617H19.7519C18.4192 22.617 17.3475 23.6444 17.1451 25.127C16.9732 26.5506 16.9312 29.2379 17.1451 30.8042C17.3307 32.3706 18.3542 33.383 19.7519 33.383H21.5629L25.0893 36.3236C25.4511 36.6382 26.0897 36.9989 26.6769 36.9989C26.7146 37 26.7482 37 26.7817 37C27.845 37 28.7814 36.2206 29.1327 35.0192C29.265 34.5113 29.3114 34.0352 29.3563 33.5752L29.3571 33.5666L29.4043 33.1082C29.5846 31.6213 29.5846 24.3691 29.4043 22.8929L29.3571 22.4506ZM33.4066 22.4946C33.1182 22.0694 32.5467 21.9631 32.1283 22.2584C31.7141 22.5558 31.6114 23.142 31.8997 23.566C32.7019 24.7481 33.1434 26.322 33.1434 28C33.1434 29.677 32.7019 31.2519 31.8997 32.434C31.6114 32.858 31.7141 33.4442 32.1294 33.7416C32.2846 33.8511 32.466 33.9091 32.6526 33.9091C32.9536 33.9091 33.2346 33.7577 33.4066 33.5054C34.4195 32.0131 34.9784 30.0581 34.9784 28C34.9784 25.9419 34.4195 23.9869 33.4066 22.4946ZM35.2901 19.2211C35.7074 18.9248 36.281 19.0332 36.5673 19.4573C38.136 21.7666 39 24.8016 39 27.9999C39 31.2003 38.136 34.2343 36.5673 36.5436C36.3963 36.7959 36.1143 36.9473 35.8133 36.9473C35.6267 36.9473 35.4463 36.8893 35.2911 36.7798C34.8759 36.4824 34.7731 35.8973 35.0604 35.4722C36.4173 33.4731 37.165 30.8192 37.165 27.9999C37.165 25.1817 36.4173 22.5278 35.0604 20.5287C34.7731 20.1046 34.8759 19.5185 35.2901 19.2211Z" fill="white"/>
</svg>
