<svg width="88" height="89" viewBox="0 0 88 89" fill="none" xmlns="http://www.w3.org/2000/svg">
<rect y="0.5" width="88" height="88" rx="44" fill="#B140FF"/>
<path fill-rule="evenodd" clip-rule="evenodd" d="M44.2919 49.862H43.7091C39.7034 49.862 36.4566 46.6542 36.4566 42.7002V34.9948C36.4566 31.0392 39.7034 27.833 43.7091 27.833H44.2919C48.2976 27.833 51.546 31.0392 51.546 34.9948V42.7002C51.546 46.6542 48.2976 49.862 44.2919 49.862ZM54.9383 42.4711C54.9383 41.5894 55.6616 40.8768 56.5528 40.8768C57.444 40.8768 58.1673 41.5894 58.1673 42.4711C58.1673 49.6441 52.6682 55.567 45.616 56.3626V59.572C45.616 60.4521 44.8927 61.1663 44.0015 61.1663C43.1086 61.1663 42.3869 60.4521 42.3869 59.572V56.3626C35.3331 55.567 29.834 49.6441 29.834 42.4711C29.834 41.5894 30.5573 40.8768 31.4485 40.8768C32.3397 40.8768 33.063 41.5894 33.063 42.4711C33.063 48.426 37.9696 53.2712 44.0015 53.2712C50.0317 53.2712 54.9383 48.426 54.9383 42.4711Z" fill="white"/>
</svg>
