<svg width="88" height="88" viewBox="0 0 88 88" fill="none" xmlns="http://www.w3.org/2000/svg">
<rect width="88" height="88" rx="44" fill="#B140FF"/>
<path fill-rule="evenodd" clip-rule="evenodd" d="M27.333 44.0093C27.333 34.8101 34.8137 27.333 43.9997 27.333C53.1856 27.333 60.6663 34.8101 60.6663 44.0093C60.6663 53.1893 53.1856 60.6663 43.9997 60.6663C34.8137 60.6663 27.333 53.1893 27.333 44.0093ZM50.1129 45.6961C50.2899 45.5192 50.5151 45.2459 50.5634 45.1815C50.8208 44.8439 50.9495 44.4258 50.9495 44.0093C50.9495 43.5414 50.8047 43.1072 50.5312 42.7535C50.5088 42.7311 50.4649 42.6833 50.4077 42.6211C50.3007 42.5046 50.1471 42.3374 50.0003 42.1907C48.6811 40.7757 45.2384 38.4602 43.4366 37.7527C43.1631 37.6417 42.4714 37.3989 42.1013 37.3829C41.7474 37.3829 41.4096 37.4633 41.0878 37.6241C40.6856 37.8492 40.3639 38.2029 40.1869 38.621C40.0743 38.9104 39.8974 39.7787 39.8974 39.7948C39.7204 40.7435 39.6239 42.2872 39.6239 43.9916C39.6239 45.6173 39.7204 47.095 39.8652 48.0598C39.8692 48.0638 39.883 48.1328 39.9045 48.24C39.9699 48.5659 40.106 49.2448 40.2513 49.5231C40.6052 50.1984 41.297 50.6165 42.037 50.6165H42.1013C42.584 50.6004 43.5975 50.1823 43.5975 50.1663C45.3028 49.4588 48.6651 47.2558 50.0164 45.7926L50.1129 45.6961Z" fill="white"/>
</svg>
